<svg width="104" height="103" viewBox="0 0 104 103" fill="none" xmlns="http://www.w3.org/2000/svg">
<rect width="104" height="103" fill="#F5F5F5"/>
<path d="M6 2C11.2186 2.57984 16.464 4.70863 22 5C25.559 5.18732 28.8442 6 32.5 6C38.4867 6 44.1815 6.3213 50.0556 7.05556C57.029 7.92723 63.8966 8 71 8C76.941 8 81.7478 7.20845 87.5556 6.22222C89.6925 5.85935 99.1787 3.2379 99.8889 6.61111C102.374 18.4157 98.1111 30.9238 98.1111 42.5556C98.1111 50.2534 102 57.5137 102 65.2222C102 68.6481 102 72.0741 102 75.5C102 82.8529 100 89.7939 100 97.0556C100 102.479 88.2642 100 84 100C80.1428 100 76.2387 100.259 72.4444 99.5C62.9183 97.5948 52.3562 102.484 43.2222 99.7778C34.9167 97.3169 26.2034 100 18 100C16.6982 100 10.4293 100.753 10.0556 99.4444C9.46289 97.3701 8 94.9903 8 93C8 89.7541 9.20713 83.4366 7.44444 80.6667C6.21571 78.7358 5 76.6972 5 74C5 67.2874 4 60.5956 4 54C4 50.1481 4 46.2963 4 42.4444C4 38.4983 2 37.9632 2 34.2222C2 30.6481 2 27.0741 2 23.5C2 22.2347 3.44957 17.188 4.22222 16.2222C7.44072 12.1991 7 7.08136 7 2" stroke="black" stroke-width="3" stroke-linecap="round"/>
</svg>
